<!-- Generated by IcoMoon.io -->
<svg version="1.1" xmlns="http://www.w3.org/2000/svg" width="384" height="448" viewBox="0 0 384 448">
<title></title>
<g id="icomoon-ignore">
</g>
<path fill="#000" d="M227.25 348.75l25.5-25.5c6.25-6.25 6.25-16.25 0-22.5l-76.75-76.75 76.75-76.75c6.25-6.25 6.25-16.25 0-22.5l-25.5-25.5c-6.25-6.25-16.25-6.25-22.5 0l-113.5 113.5c-6.25 6.25-6.25 16.25 0 22.5l113.5 113.5c6.25 6.25 16.25 6.25 22.5 0zM384 224c0 106-86 192-192 192s-192-86-192-192 86-192 192-192 192 86 192 192z"></path>
</svg>
