<!-- Generated by IcoMoon.io -->
<svg version="1.1" xmlns="http://www.w3.org/2000/svg" width="768" height="768" viewBox="0 0 768 768">
<title></title>
<g id="icomoon-ignore">
</g>
<path fill="#000" d="M96 253.472l269.664 188.768c10.88 7.52 25.44 7.872 36.704 0l269.632-188.768v322.528c0 8.704-3.52 16.672-9.44 22.56s-13.856 9.44-22.56 9.44h-512c-8.704 0-16.672-3.52-22.56-9.44s-9.44-13.856-9.44-22.56zM32 191.456c0 0.32 0 0.64 0 0.96v383.584c0 26.496 10.88 50.528 28.16 67.84s41.344 28.16 67.84 28.16h512c26.496 0 50.528-10.88 67.84-28.16s28.16-41.344 28.16-67.84v-383.616c0-0.32 0-0.64 0-0.96-0.16-26.272-10.976-50.080-28.16-67.264-17.312-17.28-41.344-28.16-67.84-28.16h-512c-26.496 0-50.528 10.88-67.84 28.16-17.184 17.184-28 40.992-28.16 67.296zM668.608 177.728l-284.608 199.2-284.608-199.2c1.536-3.072 3.584-5.856 6.016-8.288 5.92-5.92 13.888-9.44 22.592-9.44h512c8.704 0 16.672 3.52 22.56 9.44 2.432 2.432 4.48 5.248 6.016 8.288z"></path>
</svg>
