<!-- Generated by IcoMoon.io -->
<svg version="1.1" xmlns="http://www.w3.org/2000/svg" width="878" height="1024" viewBox="0 0 878 1024">
<title></title>
<g id="icomoon-ignore">
</g>
<path fill="#000" d="M731.429 681.714c0-2.857 0-6.286-1.143-9.143-3.429-10.286-86.857-52.571-102.857-61.714-10.857-6.286-24-18.857-37.143-18.857-25.143 0-62.286 74.857-84.571 74.857-11.429 0-25.714-10.286-36-16-75.429-42.286-127.429-94.286-169.714-169.714-5.714-10.286-16-24.571-16-36 0-22.286 74.857-59.429 74.857-84.571 0-13.143-12.571-26.286-18.857-37.143-9.143-16-51.429-99.429-61.714-102.857-2.857-1.143-6.286-1.143-9.143-1.143-14.857 0-44 6.857-57.714 12.571-37.714 17.143-65.143 89.143-65.143 128.571 0 38.286 15.429 73.143 28.571 108.571 45.714 125.143 181.714 261.143 306.857 306.857 35.429 13.143 70.286 28.571 108.571 28.571 39.429 0 111.429-27.429 128.571-65.143 5.714-13.714 12.571-42.857 12.571-57.714zM877.714 237.714v548.571c0 90.857-73.714 164.571-164.571 164.571h-548.571c-90.857 0-164.571-73.714-164.571-164.571v-548.571c0-90.857 73.714-164.571 164.571-164.571h548.571c90.857 0 164.571 73.714 164.571 164.571z"></path>
</svg>
